<svg fill="#0067FF" version="1.1" id="Capa_1" xmlns="http://www.w3.org/2000/svg"
	xmlns:xlink="http://www.w3.org/1999/xlink" width="100%" height="100%" viewBox="0 0 330.36 330.36"
	xml:space="preserve">
	<g>
		<g>
			<path
				d="M116.652,236.67c-0.018,0-0.036,0-0.075,0c-5.065-0.3-10.205,1.033-14.066,4.348c-15.747,13.475-35.56,27.49-54.8,36.647
			c5.768-14.634,9.629-31.531,6.753-47.576c-0.913-5.2-4.036-9.752-8.566-12.502C16.732,199.896,0,173.332,0,144.695
			c0-50.729,52.287-92,116.541-92c25.353,0,49.702,6.611,69.607,18.417c-1.645,0.615-3.206,1.309-4.798,1.973
			c-0.895,0.387-1.831,0.738-2.731,1.144c-3.087,1.378-6.102,2.84-9.037,4.417c-0.679,0.367-1.31,0.769-1.988,1.15
			c-2.248,1.264-4.479,2.588-6.632,3.972c-0.991,0.63-1.925,1.285-2.897,1.931c-1.832,1.246-3.615,2.519-5.356,3.855
			c-0.91,0.7-1.832,1.396-2.711,2.114c-1.925,1.537-3.75,3.125-5.527,4.752c-0.595,0.544-1.216,1.045-1.784,1.601
			c-2.294,2.177-4.489,4.429-6.554,6.752c-0.576,0.639-1.093,1.309-1.636,1.949c-1.504,1.756-2.963,3.546-4.348,5.392
			c-0.646,0.886-1.273,1.759-1.906,2.651c-1.216,1.739-2.372,3.516-3.486,5.317c-0.541,0.88-1.093,1.753-1.615,2.651
			c-1.291,2.255-2.48,4.555-3.597,6.894c-0.216,0.436-0.462,0.858-0.661,1.303c-1.273,2.771-2.39,5.615-3.375,8.491
			c-0.312,0.844-0.541,1.69-0.816,2.546c-0.658,2.102-1.255,4.23-1.778,6.371c-0.252,1.026-0.468,2.071-0.675,3.104
			c-0.432,2.113-0.795,4.26-1.084,6.419c-0.129,0.961-0.27,1.918-0.381,2.876c-0.3,3.102-0.516,6.218-0.516,9.377
			c0,3.999,0.363,7.95,0.862,11.865c0.129,0.984,0.27,1.958,0.429,2.937c0.633,3.885,1.42,7.728,2.534,11.499
			c0.018,0.084,0.054,0.145,0.075,0.223c1.111,3.717,2.531,7.344,4.074,10.91c0.394,0.913,0.813,1.813,1.225,2.702
			c1.703,3.597,3.534,7.134,5.674,10.551c0.075,0.102,0.142,0.187,0.198,0.282c2.102,3.351,4.489,6.562,7.008,9.709
			c0.615,0.764,1.219,1.52,1.858,2.271c0.64,0.763,1.237,1.567,1.9,2.312C129.695,236.238,123.207,236.67,116.652,236.67z" />
			<path d="M294.554,226.666c-4.51,2.738-7.633,7.29-8.569,12.49c-1.939,10.881-0.312,22.17,2.895,32.559
			c-12.959-7.104-25.893-16.525-36.533-25.617c-3.339-2.858-7.578-4.42-11.962-4.42c-0.612,0-1.236,0.024-1.663,0.061
			c-19.468,0-38.118-4.798-53.929-13.883c-23.635-13.553-37.734-35.141-37.734-57.754c0-4.543,0.556-8.989,1.582-13.31
			c1.039-4.324,2.588-8.512,4.579-12.526c6.758-13.631,18.759-25.266,34.143-33.42c2.21-1.174,4.504-2.282,6.857-3.309
			c0.564-0.24,1.105-0.528,1.67-0.763c9.739-4.02,20.578-6.731,32.113-7.791c3.507-0.324,7.08-0.528,10.713-0.528
			c50.524,0,91.646,32.141,91.646,71.634C330.36,192.247,317.317,212.867,294.554,226.666z" />
		</g>
	</g>
</svg>