<?xml version="1.0" encoding="iso-8859-1"?>

<svg height="24px" width="24px" version="1.1" id="Layer_1" xmlns="http://www.w3.org/2000/svg" fill="#0067FF"
	xmlns:xlink="http://www.w3.org/1999/xlink" viewBox="0 0 512 512" xml:space="preserve">
	<path d="M37.728,49.312v186.48C37.728,413.104,256,512,256,512s218.272-98.896,218.272-276.208V49.312
	C474.272,49.312,396.128,0,256,0S37.728,49.312,37.728,49.312z" style="opacity: 0.1" />
	<path d="M256,0C115.872,0,37.728,49.312,37.728,49.312v186.48C37.728,413.104,256,512,256,512V0z" />
	<g>
		<path style="fill:#888888;" d="M364.6,286.992c0,0-29.104,74.104-108.6,74.104s-108.6-74.104-108.6-74.104
		S256,361.096,364.6,286.992z" />
		<path style="fill:#888888;" d="M224.8,153.424c-16.072-37.664-59.632-55.168-97.296-39.096
		c-17.584,7.504-31.592,21.512-39.096,39.096H224.8z" />
		<path style="fill:#888888;" d="M423.592,153.424c-16.072-37.664-59.632-55.168-97.296-39.096
		c-17.584,7.504-31.592,21.512-39.096,39.096H423.592z" />
	</g>
</svg>